%TF.GenerationSoftware,KiCad,Pcbnew,9.0.7*%
%TF.CreationDate,2026-07-27T15:20:47+02:00*%
%TF.ProjectId,keyboard,6b657962-6f61-4726-942e-6b696361645f,rev?*%
%TF.SameCoordinates,Original*%
%TF.FileFunction,Copper,L1,Top*%
%TF.FilePolarity,Positive*%
%FSLAX46Y46*%
G04 Gerber Fmt 4.6, Leading zero omitted, Abs format (unit mm)*
G04 Created by KiCad (PCBNEW 9.0.7) date 2026-07-27 15:20:47*
%MOMM*%
%LPD*%
G01*
G04 APERTURE LIST*
G04 Aperture macros list*
%AMRoundRect*
0 Rectangle with rounded corners*
0 $1 Rounding radius*
0 $2 $3 $4 $5 $6 $7 $8 $9 X,Y pos of 4 corners*
0 Add a 4 corners polygon primitive as box body*
4,1,4,$2,$3,$4,$5,$6,$7,$8,$9,$2,$3,0*
0 Add four circle primitives for the rounded corners*
1,1,$1+$1,$2,$3*
1,1,$1+$1,$4,$5*
1,1,$1+$1,$6,$7*
1,1,$1+$1,$8,$9*
0 Add four rect primitives between the rounded corners*
20,1,$1+$1,$2,$3,$4,$5,0*
20,1,$1+$1,$4,$5,$6,$7,0*
20,1,$1+$1,$6,$7,$8,$9,0*
20,1,$1+$1,$8,$9,$2,$3,0*%
G04 Aperture macros list end*
%TA.AperFunction,ComponentPad*%
%ADD10O,2.500000X3.000000*%
%TD*%
%TA.AperFunction,SMDPad,CuDef*%
%ADD11RoundRect,0.150000X-0.875000X-0.150000X0.875000X-0.150000X0.875000X0.150000X-0.875000X0.150000X0*%
%TD*%
%TA.AperFunction,SMDPad,CuDef*%
%ADD12RoundRect,0.100000X-0.100000X0.130000X-0.100000X-0.130000X0.100000X-0.130000X0.100000X0.130000X0*%
%TD*%
%TA.AperFunction,SMDPad,CuDef*%
%ADD13RoundRect,0.100000X-0.130000X-0.100000X0.130000X-0.100000X0.130000X0.100000X-0.130000X0.100000X0*%
%TD*%
%TA.AperFunction,ComponentPad*%
%ADD14R,1.520000X1.520000*%
%TD*%
%TA.AperFunction,ComponentPad*%
%ADD15C,1.520000*%
%TD*%
%TA.AperFunction,ComponentPad*%
%ADD16R,2.000000X2.000000*%
%TD*%
%TA.AperFunction,ComponentPad*%
%ADD17C,2.000000*%
%TD*%
%TA.AperFunction,ComponentPad*%
%ADD18R,3.200000X2.000000*%
%TD*%
%TA.AperFunction,ComponentPad*%
%ADD19R,1.500000X1.500000*%
%TD*%
%TA.AperFunction,ComponentPad*%
%ADD20C,1.600000*%
%TD*%
G04 APERTURE END LIST*
D10*
%TO.P,SW31,1,1*%
%TO.N,Net-(P1-R4)*%
X51000000Y-152500000D03*
X51000000Y-140000000D03*
%TO.P,SW31,2,2*%
%TO.N,Net-(P1-C1)*%
X56000000Y-152500000D03*
X56000000Y-140000000D03*
%TD*%
%TO.P,SW33,1,1*%
%TO.N,Net-(P1-R4)*%
X86000000Y-152500000D03*
X86000000Y-140000000D03*
%TO.P,SW33,2,2*%
%TO.N,Net-(P1-C3)*%
X91000000Y-152500000D03*
X91000000Y-140000000D03*
%TD*%
%TO.P,SW34,1,1*%
%TO.N,Net-(P1-R4)*%
X103500000Y-152500000D03*
X103500000Y-140000000D03*
%TO.P,SW34,2,2*%
%TO.N,Net-(P1-C4)*%
X108500000Y-152500000D03*
X108500000Y-140000000D03*
%TD*%
%TO.P,SW32,1,1*%
%TO.N,Net-(P1-R4)*%
X68500000Y-152500000D03*
X68500000Y-140000000D03*
%TO.P,SW32,2,2*%
%TO.N,Net-(P1-C2)*%
X73500000Y-152500000D03*
X73500000Y-140000000D03*
%TD*%
%TO.P,SW36,1,1*%
%TO.N,Net-(P1-R4)*%
X138500000Y-152500000D03*
X138500000Y-140000000D03*
%TO.P,SW36,2,2*%
%TO.N,Net-(P1-C6)*%
X143500000Y-152500000D03*
X143500000Y-140000000D03*
%TD*%
%TO.P,SW35,1,1*%
%TO.N,Net-(P1-R4)*%
X121000000Y-152500000D03*
X121000000Y-140000000D03*
%TO.P,SW35,2,2*%
%TO.N,Net-(P1-C5)*%
X126000000Y-152500000D03*
X126000000Y-140000000D03*
%TD*%
%TO.P,SW27,1,1*%
%TO.N,Net-(P1-R3)*%
X138500000Y-131500000D03*
X138500000Y-119000000D03*
%TO.P,SW27,2,2*%
%TO.N,Net-(P1-C7)*%
X143500000Y-131500000D03*
X143500000Y-119000000D03*
%TD*%
%TO.P,SW17,1,1*%
%TO.N,Net-(P1-R2)*%
X138500000Y-110500000D03*
X138500000Y-98000000D03*
%TO.P,SW17,2,2*%
%TO.N,Net-(P1-C7)*%
X143500000Y-110500000D03*
X143500000Y-98000000D03*
%TD*%
%TO.P,SW8,1,1*%
%TO.N,Net-(P1-R1)*%
X156000000Y-89500000D03*
X156000000Y-77000000D03*
%TO.P,SW8,2,2*%
%TO.N,Net-(P1-C8)*%
X161000000Y-89500000D03*
X161000000Y-77000000D03*
%TD*%
%TO.P,SW37,1,1*%
%TO.N,Net-(P1-R4)*%
X156000000Y-152500000D03*
X156000000Y-140000000D03*
%TO.P,SW37,2,2*%
%TO.N,Net-(P1-C7)*%
X161000000Y-152500000D03*
X161000000Y-140000000D03*
%TD*%
%TO.P,SW25,1,1*%
%TO.N,Net-(P1-R3)*%
X103500000Y-131500000D03*
X103500000Y-119000000D03*
%TO.P,SW25,2,2*%
%TO.N,Net-(P1-C5)*%
X108500000Y-131500000D03*
X108500000Y-119000000D03*
%TD*%
D11*
%TO.P,U2,1,GPB0*%
%TO.N,unconnected-(U2-GPB0-Pad1)*%
X213200000Y-53800000D03*
%TO.P,U2,2,GPB1*%
%TO.N,unconnected-(U2-GPB1-Pad2)*%
X213200000Y-55070000D03*
%TO.P,U2,3,GPB2*%
%TO.N,unconnected-(U2-GPB2-Pad3)*%
X213200000Y-56340000D03*
%TO.P,U2,4,GPB3*%
%TO.N,unconnected-(U2-GPB3-Pad4)*%
X213200000Y-57610000D03*
%TO.P,U2,5,GPB4*%
%TO.N,unconnected-(U2-GPB4-Pad5)*%
X213200000Y-58880000D03*
%TO.P,U2,6,GPB5*%
%TO.N,unconnected-(U2-GPB5-Pad6)*%
X213200000Y-60150000D03*
%TO.P,U2,7,GPB6*%
%TO.N,unconnected-(U2-GPB6-Pad7)*%
X213200000Y-61420000D03*
%TO.P,U2,8,GPB7*%
%TO.N,unconnected-(U2-GPB7-Pad8)*%
X213200000Y-62690000D03*
%TO.P,U2,9,VDD*%
%TO.N,Net-(P1-VCC)*%
X213200000Y-63960000D03*
%TO.P,U2,10,VSS*%
%TO.N,Net-(P1-GND)*%
X213200000Y-65230000D03*
%TO.P,U2,11,NC*%
%TO.N,unconnected-(U2-NC-Pad11)*%
X213200000Y-66500000D03*
%TO.P,U2,12,SCK*%
%TO.N,Net-(P1-SCL)*%
X213200000Y-67770000D03*
%TO.P,U2,13,SDA*%
%TO.N,Net-(P1-SDA)*%
X213200000Y-69040000D03*
%TO.P,U2,14,NC*%
%TO.N,unconnected-(U2-NC-Pad14)*%
X213200000Y-70310000D03*
%TO.P,U2,15,A0*%
%TO.N,Net-(P1-GND)*%
X222500000Y-70310000D03*
%TO.P,U2,16,A1*%
X222500000Y-69040000D03*
%TO.P,U2,17,A2*%
X222500000Y-67770000D03*
%TO.P,U2,18,~{RESET}*%
%TO.N,Net-(U2-~{RESET})*%
X222500000Y-66500000D03*
%TO.P,U2,19,INTB*%
%TO.N,unconnected-(U2-INTB-Pad19)*%
X222500000Y-65230000D03*
%TO.P,U2,20,INTA*%
%TO.N,unconnected-(U2-INTA-Pad20)*%
X222500000Y-63960000D03*
%TO.P,U2,21,GPA0*%
%TO.N,unconnected-(U2-GPA0-Pad21)*%
X222500000Y-62690000D03*
%TO.P,U2,22,GPA1*%
%TO.N,unconnected-(U2-GPA1-Pad22)*%
X222500000Y-61420000D03*
%TO.P,U2,23,GPA2*%
%TO.N,unconnected-(U2-GPA2-Pad23)*%
X222500000Y-60150000D03*
%TO.P,U2,24,GPA3*%
%TO.N,unconnected-(U2-GPA3-Pad24)*%
X222500000Y-58880000D03*
%TO.P,U2,25,GPA4*%
%TO.N,unconnected-(U2-GPA4-Pad25)*%
X222500000Y-57610000D03*
%TO.P,U2,26,GPA5*%
%TO.N,Net-(U2-GPA5)*%
X222500000Y-56340000D03*
%TO.P,U2,27,GPA6*%
%TO.N,Net-(U2-GPA6)*%
X222500000Y-55070000D03*
%TO.P,U2,28,GPA7*%
%TO.N,Net-(U2-GPA7)*%
X222500000Y-53800000D03*
%TD*%
D10*
%TO.P,SW20,1,1*%
%TO.N,Net-(P1-R2)*%
X191000000Y-110500000D03*
X191000000Y-98000000D03*
%TO.P,SW20,2,2*%
%TO.N,Net-(P1-C10)*%
X196000000Y-110500000D03*
X196000000Y-98000000D03*
%TD*%
%TO.P,SW15,1,1*%
%TO.N,Net-(P1-R2)*%
X103500000Y-110500000D03*
X103500000Y-98000000D03*
%TO.P,SW15,2,2*%
%TO.N,Net-(P1-C5)*%
X108500000Y-110500000D03*
X108500000Y-98000000D03*
%TD*%
%TO.P,SW29,1,1*%
%TO.N,Net-(P1-R3)*%
X173500000Y-131500000D03*
X173500000Y-119000000D03*
%TO.P,SW29,2,2*%
%TO.N,Net-(P1-C9)*%
X178500000Y-131500000D03*
X178500000Y-119000000D03*
%TD*%
%TO.P,SW23,1,1*%
%TO.N,Net-(P1-R3)*%
X68500000Y-131500000D03*
X68500000Y-119000000D03*
%TO.P,SW23,2,2*%
%TO.N,Net-(P1-C3)*%
X73500000Y-131500000D03*
X73500000Y-119000000D03*
%TD*%
D12*
%TO.P,R1,1*%
%TO.N,Net-(P1-VCC)*%
X227000000Y-66025000D03*
%TO.P,R1,2*%
%TO.N,Net-(U2-~{RESET})*%
X227000000Y-66665000D03*
%TD*%
D10*
%TO.P,SW10,1,1*%
%TO.N,Net-(P1-R1)*%
X191000000Y-89500000D03*
X191000000Y-77000000D03*
%TO.P,SW10,2,2*%
%TO.N,Net-(P1-C10)*%
X196000000Y-89500000D03*
X196000000Y-77000000D03*
%TD*%
%TO.P,SW13,1,1*%
%TO.N,Net-(P1-R2)*%
X68500000Y-110500000D03*
X68500000Y-98000000D03*
%TO.P,SW13,2,2*%
%TO.N,Net-(P1-C3)*%
X73500000Y-110500000D03*
X73500000Y-98000000D03*
%TD*%
%TO.P,SW22,1,1*%
%TO.N,Net-(P1-R3)*%
X51000000Y-131500000D03*
X51000000Y-119000000D03*
%TO.P,SW22,2,2*%
%TO.N,Net-(P1-C2)*%
X56000000Y-131500000D03*
X56000000Y-119000000D03*
%TD*%
%TO.P,SW30,1,1*%
%TO.N,Net-(P1-R3)*%
X198000000Y-131500000D03*
X198000000Y-119000000D03*
%TO.P,SW30,2,2*%
%TO.N,Net-(P1-C10)*%
X203000000Y-131500000D03*
X203000000Y-119000000D03*
%TD*%
%TO.P,SW4,1,1*%
%TO.N,Net-(P1-R1)*%
X86000000Y-89500000D03*
X86000000Y-77000000D03*
%TO.P,SW4,2,2*%
%TO.N,Net-(P1-C4)*%
X91000000Y-89500000D03*
X91000000Y-77000000D03*
%TD*%
%TO.P,SW38,1,1*%
%TO.N,Net-(P1-R4)*%
X205000000Y-160250000D03*
X205000000Y-147750000D03*
%TO.P,SW38,2,2*%
%TO.N,Net-(P1-C8)*%
X210000000Y-160250000D03*
X210000000Y-147750000D03*
%TD*%
%TO.P,SW6,1,1*%
%TO.N,Net-(P1-R1)*%
X121000000Y-89500000D03*
X121000000Y-77000000D03*
%TO.P,SW6,2,2*%
%TO.N,Net-(P1-C6)*%
X126000000Y-89500000D03*
X126000000Y-77000000D03*
%TD*%
D13*
%TO.P,R3,1*%
%TO.N,Net-(P1-VCC)*%
X206525000Y-72000000D03*
%TO.P,R3,2*%
%TO.N,Net-(P1-SDA)*%
X207165000Y-72000000D03*
%TD*%
D14*
%TO.P,P1,1,R1*%
%TO.N,Net-(P1-R1)*%
X34180000Y-34000000D03*
D15*
%TO.P,P1,2,R2*%
%TO.N,Net-(P1-R2)*%
X36720000Y-34000000D03*
%TO.P,P1,3,R3*%
%TO.N,Net-(P1-R3)*%
X39260000Y-34000000D03*
%TO.P,P1,4,R4*%
%TO.N,Net-(P1-R4)*%
X41800000Y-34000000D03*
%TO.P,P1,5,C1*%
%TO.N,Net-(P1-C1)*%
X44340000Y-34000000D03*
%TO.P,P1,6,C2*%
%TO.N,Net-(P1-C2)*%
X46880000Y-34000000D03*
%TO.P,P1,7,C3*%
%TO.N,Net-(P1-C3)*%
X49420000Y-34000000D03*
%TO.P,P1,8,C4*%
%TO.N,Net-(P1-C4)*%
X51960000Y-34000000D03*
%TO.P,P1,9,C5*%
%TO.N,Net-(P1-C5)*%
X54500000Y-34000000D03*
%TO.P,P1,10,C6*%
%TO.N,Net-(P1-C6)*%
X57040000Y-34000000D03*
%TO.P,P1,11,C7*%
%TO.N,Net-(P1-C7)*%
X59580000Y-34000000D03*
%TO.P,P1,12,C8*%
%TO.N,Net-(P1-C8)*%
X62120000Y-34000000D03*
%TO.P,P1,13,C9*%
%TO.N,Net-(P1-C9)*%
X64660000Y-34000000D03*
%TO.P,P1,14,C10*%
%TO.N,Net-(P1-C10)*%
X67200000Y-34000000D03*
%TO.P,P1,15,GND*%
%TO.N,Net-(P1-GND)*%
X69740000Y-34000000D03*
%TO.P,P1,16,VCC*%
%TO.N,Net-(P1-VCC)*%
X72280000Y-34000000D03*
%TO.P,P1,17,SLD_SW*%
%TO.N,Net-(SW42-B)*%
X74820000Y-34000000D03*
%TO.P,P1,18,SLD_SW*%
%TO.N,Net-(SW42-A)*%
X77360000Y-34000000D03*
%TO.P,P1,19,SLD_SW*%
%TO.N,Net-(SW42-C)*%
X79900000Y-34000000D03*
%TO.P,P1,20,SDA*%
%TO.N,Net-(P1-SDA)*%
X82440000Y-34000000D03*
%TO.P,P1,21,SCL*%
%TO.N,Net-(P1-SCL)*%
X84980000Y-34000000D03*
%TD*%
D10*
%TO.P,SW12,1,1*%
%TO.N,Net-(P1-R2)*%
X51000000Y-110500000D03*
X51000000Y-98000000D03*
%TO.P,SW12,2,2*%
%TO.N,Net-(P1-C2)*%
X56000000Y-110500000D03*
X56000000Y-98000000D03*
%TD*%
%TO.P,SW2,1,1*%
%TO.N,Net-(P1-R1)*%
X51000000Y-89500000D03*
X51000000Y-77000000D03*
%TO.P,SW2,2,2*%
%TO.N,Net-(P1-C2)*%
X56000000Y-89500000D03*
X56000000Y-77000000D03*
%TD*%
D16*
%TO.P,SW41,A,A*%
%TO.N,Net-(U2-GPA6)*%
X185000000Y-58500000D03*
D17*
%TO.P,SW41,B,B*%
%TO.N,Net-(U2-GPA7)*%
X185000000Y-53500000D03*
%TO.P,SW41,C,C*%
%TO.N,Net-(P1-GND)*%
X185000000Y-56000000D03*
D18*
%TO.P,SW41,MP*%
%TO.N,N/C*%
X177500000Y-61600000D03*
X177500000Y-50400000D03*
D17*
%TO.P,SW41,S1,S1*%
%TO.N,Net-(U2-GPA5)*%
X170500000Y-53500000D03*
%TO.P,SW41,S2,S2*%
%TO.N,Net-(P1-GND)*%
X170500000Y-58500000D03*
%TD*%
D10*
%TO.P,SW26,1,1*%
%TO.N,Net-(P1-R3)*%
X121000000Y-131500000D03*
X121000000Y-119000000D03*
%TO.P,SW26,2,2*%
%TO.N,Net-(P1-C6)*%
X126000000Y-131500000D03*
X126000000Y-119000000D03*
%TD*%
%TO.P,SW9,1,1*%
%TO.N,Net-(P1-R1)*%
X173500000Y-89500000D03*
X173500000Y-77000000D03*
%TO.P,SW9,2,2*%
%TO.N,Net-(P1-C9)*%
X178500000Y-89500000D03*
X178500000Y-77000000D03*
%TD*%
%TO.P,SW19,1,1*%
%TO.N,Net-(P1-R2)*%
X173500000Y-110500000D03*
X173500000Y-98000000D03*
%TO.P,SW19,2,2*%
%TO.N,Net-(P1-C9)*%
X178500000Y-110500000D03*
X178500000Y-98000000D03*
%TD*%
%TO.P,SW1,1,1*%
%TO.N,Net-(P1-R1)*%
X33500000Y-89500000D03*
X33500000Y-77000000D03*
%TO.P,SW1,2,2*%
%TO.N,Net-(P1-C1)*%
X38500000Y-89500000D03*
X38500000Y-77000000D03*
%TD*%
%TO.P,SW11,1,1*%
%TO.N,Net-(P1-R2)*%
X33500000Y-110500000D03*
X33500000Y-98000000D03*
%TO.P,SW11,2,2*%
%TO.N,Net-(P1-C1)*%
X38500000Y-110500000D03*
X38500000Y-98000000D03*
%TD*%
%TO.P,SW18,1,1*%
%TO.N,Net-(P1-R2)*%
X156000000Y-110500000D03*
X156000000Y-98000000D03*
%TO.P,SW18,2,2*%
%TO.N,Net-(P1-C8)*%
X161000000Y-110500000D03*
X161000000Y-98000000D03*
%TD*%
%TO.P,SW14,1,1*%
%TO.N,Net-(P1-R2)*%
X86000000Y-110500000D03*
X86000000Y-98000000D03*
%TO.P,SW14,2,2*%
%TO.N,Net-(P1-C4)*%
X91000000Y-110500000D03*
X91000000Y-98000000D03*
%TD*%
%TO.P,SW5,1,1*%
%TO.N,Net-(P1-R1)*%
X103500000Y-89500000D03*
X103500000Y-77000000D03*
%TO.P,SW5,2,2*%
%TO.N,Net-(P1-C5)*%
X108500000Y-89500000D03*
X108500000Y-77000000D03*
%TD*%
D13*
%TO.P,R2,1*%
%TO.N,Net-(P1-VCC)*%
X206525000Y-67500000D03*
%TO.P,R2,2*%
%TO.N,Net-(P1-SCL)*%
X207165000Y-67500000D03*
%TD*%
D10*
%TO.P,SW7,1,1*%
%TO.N,Net-(P1-R1)*%
X138500000Y-89500000D03*
X138500000Y-77000000D03*
%TO.P,SW7,2,2*%
%TO.N,Net-(P1-C7)*%
X143500000Y-89500000D03*
X143500000Y-77000000D03*
%TD*%
%TO.P,SW3,1,1*%
%TO.N,Net-(P1-R1)*%
X68500000Y-89500000D03*
X68500000Y-77000000D03*
%TO.P,SW3,2,2*%
%TO.N,Net-(P1-C3)*%
X73500000Y-89500000D03*
X73500000Y-77000000D03*
%TD*%
%TO.P,SW28,1,1*%
%TO.N,Net-(P1-R3)*%
X156000000Y-131500000D03*
X156000000Y-119000000D03*
%TO.P,SW28,2,2*%
%TO.N,Net-(P1-C8)*%
X161000000Y-131500000D03*
X161000000Y-119000000D03*
%TD*%
%TO.P,SW24,1,1*%
%TO.N,Net-(P1-R3)*%
X86000000Y-131500000D03*
X86000000Y-119000000D03*
%TO.P,SW24,2,2*%
%TO.N,Net-(P1-C4)*%
X91000000Y-131500000D03*
X91000000Y-119000000D03*
%TD*%
%TO.P,SW16,1,1*%
%TO.N,Net-(P1-R2)*%
X121000000Y-110500000D03*
X121000000Y-98000000D03*
%TO.P,SW16,2,2*%
%TO.N,Net-(P1-C6)*%
X126000000Y-110500000D03*
X126000000Y-98000000D03*
%TD*%
D19*
%TO.P,SW42,1,B*%
%TO.N,Net-(SW42-B)*%
X74040000Y-59500000D03*
D20*
%TO.P,SW42,2,C*%
%TO.N,Net-(SW42-C)*%
X76580000Y-59500000D03*
%TO.P,SW42,3,A*%
%TO.N,Net-(SW42-A)*%
X71500000Y-59500000D03*
%TD*%
D10*
%TO.P,SW21,1,1*%
%TO.N,Net-(P1-R3)*%
X33500000Y-131500000D03*
X33500000Y-119000000D03*
%TO.P,SW21,2,2*%
%TO.N,Net-(P1-C1)*%
X38500000Y-131500000D03*
X38500000Y-119000000D03*
%TD*%
M02*
