%TF.GenerationSoftware,KiCad,Pcbnew,9.0.7*%
%TF.CreationDate,2026-07-27T15:20:48+02:00*%
%TF.ProjectId,keyboard,6b657962-6f61-4726-942e-6b696361645f,rev?*%
%TF.SameCoordinates,Original*%
%TF.FileFunction,Copper,L2,Bot*%
%TF.FilePolarity,Positive*%
%FSLAX46Y46*%
G04 Gerber Fmt 4.6, Leading zero omitted, Abs format (unit mm)*
G04 Created by KiCad (PCBNEW 9.0.7) date 2026-07-27 15:20:48*
%MOMM*%
%LPD*%
G01*
G04 APERTURE LIST*
%TA.AperFunction,ComponentPad*%
%ADD10O,2.500000X3.000000*%
%TD*%
%TA.AperFunction,ComponentPad*%
%ADD11R,1.520000X1.520000*%
%TD*%
%TA.AperFunction,ComponentPad*%
%ADD12C,1.520000*%
%TD*%
%TA.AperFunction,ComponentPad*%
%ADD13R,2.000000X2.000000*%
%TD*%
%TA.AperFunction,ComponentPad*%
%ADD14C,2.000000*%
%TD*%
%TA.AperFunction,ComponentPad*%
%ADD15R,3.200000X2.000000*%
%TD*%
%TA.AperFunction,ComponentPad*%
%ADD16R,1.500000X1.500000*%
%TD*%
%TA.AperFunction,ComponentPad*%
%ADD17C,1.600000*%
%TD*%
G04 APERTURE END LIST*
D10*
%TO.P,SW31,1,1*%
%TO.N,Net-(P1-R4)*%
X51000000Y-152500000D03*
X51000000Y-140000000D03*
%TO.P,SW31,2,2*%
%TO.N,Net-(P1-C1)*%
X56000000Y-152500000D03*
X56000000Y-140000000D03*
%TD*%
%TO.P,SW33,1,1*%
%TO.N,Net-(P1-R4)*%
X86000000Y-152500000D03*
X86000000Y-140000000D03*
%TO.P,SW33,2,2*%
%TO.N,Net-(P1-C3)*%
X91000000Y-152500000D03*
X91000000Y-140000000D03*
%TD*%
%TO.P,SW34,1,1*%
%TO.N,Net-(P1-R4)*%
X103500000Y-152500000D03*
X103500000Y-140000000D03*
%TO.P,SW34,2,2*%
%TO.N,Net-(P1-C4)*%
X108500000Y-152500000D03*
X108500000Y-140000000D03*
%TD*%
%TO.P,SW32,1,1*%
%TO.N,Net-(P1-R4)*%
X68500000Y-152500000D03*
X68500000Y-140000000D03*
%TO.P,SW32,2,2*%
%TO.N,Net-(P1-C2)*%
X73500000Y-152500000D03*
X73500000Y-140000000D03*
%TD*%
%TO.P,SW36,1,1*%
%TO.N,Net-(P1-R4)*%
X138500000Y-152500000D03*
X138500000Y-140000000D03*
%TO.P,SW36,2,2*%
%TO.N,Net-(P1-C6)*%
X143500000Y-152500000D03*
X143500000Y-140000000D03*
%TD*%
%TO.P,SW35,1,1*%
%TO.N,Net-(P1-R4)*%
X121000000Y-152500000D03*
X121000000Y-140000000D03*
%TO.P,SW35,2,2*%
%TO.N,Net-(P1-C5)*%
X126000000Y-152500000D03*
X126000000Y-140000000D03*
%TD*%
%TO.P,SW27,1,1*%
%TO.N,Net-(P1-R3)*%
X138500000Y-131500000D03*
X138500000Y-119000000D03*
%TO.P,SW27,2,2*%
%TO.N,Net-(P1-C7)*%
X143500000Y-131500000D03*
X143500000Y-119000000D03*
%TD*%
%TO.P,SW17,1,1*%
%TO.N,Net-(P1-R2)*%
X138500000Y-110500000D03*
X138500000Y-98000000D03*
%TO.P,SW17,2,2*%
%TO.N,Net-(P1-C7)*%
X143500000Y-110500000D03*
X143500000Y-98000000D03*
%TD*%
%TO.P,SW8,1,1*%
%TO.N,Net-(P1-R1)*%
X156000000Y-89500000D03*
X156000000Y-77000000D03*
%TO.P,SW8,2,2*%
%TO.N,Net-(P1-C8)*%
X161000000Y-89500000D03*
X161000000Y-77000000D03*
%TD*%
%TO.P,SW37,1,1*%
%TO.N,Net-(P1-R4)*%
X156000000Y-152500000D03*
X156000000Y-140000000D03*
%TO.P,SW37,2,2*%
%TO.N,Net-(P1-C7)*%
X161000000Y-152500000D03*
X161000000Y-140000000D03*
%TD*%
%TO.P,SW25,1,1*%
%TO.N,Net-(P1-R3)*%
X103500000Y-131500000D03*
X103500000Y-119000000D03*
%TO.P,SW25,2,2*%
%TO.N,Net-(P1-C5)*%
X108500000Y-131500000D03*
X108500000Y-119000000D03*
%TD*%
%TO.P,SW20,1,1*%
%TO.N,Net-(P1-R2)*%
X191000000Y-110500000D03*
X191000000Y-98000000D03*
%TO.P,SW20,2,2*%
%TO.N,Net-(P1-C10)*%
X196000000Y-110500000D03*
X196000000Y-98000000D03*
%TD*%
%TO.P,SW15,1,1*%
%TO.N,Net-(P1-R2)*%
X103500000Y-110500000D03*
X103500000Y-98000000D03*
%TO.P,SW15,2,2*%
%TO.N,Net-(P1-C5)*%
X108500000Y-110500000D03*
X108500000Y-98000000D03*
%TD*%
%TO.P,SW29,1,1*%
%TO.N,Net-(P1-R3)*%
X173500000Y-131500000D03*
X173500000Y-119000000D03*
%TO.P,SW29,2,2*%
%TO.N,Net-(P1-C9)*%
X178500000Y-131500000D03*
X178500000Y-119000000D03*
%TD*%
%TO.P,SW23,1,1*%
%TO.N,Net-(P1-R3)*%
X68500000Y-131500000D03*
X68500000Y-119000000D03*
%TO.P,SW23,2,2*%
%TO.N,Net-(P1-C3)*%
X73500000Y-131500000D03*
X73500000Y-119000000D03*
%TD*%
%TO.P,SW10,1,1*%
%TO.N,Net-(P1-R1)*%
X191000000Y-89500000D03*
X191000000Y-77000000D03*
%TO.P,SW10,2,2*%
%TO.N,Net-(P1-C10)*%
X196000000Y-89500000D03*
X196000000Y-77000000D03*
%TD*%
%TO.P,SW13,1,1*%
%TO.N,Net-(P1-R2)*%
X68500000Y-110500000D03*
X68500000Y-98000000D03*
%TO.P,SW13,2,2*%
%TO.N,Net-(P1-C3)*%
X73500000Y-110500000D03*
X73500000Y-98000000D03*
%TD*%
%TO.P,SW22,1,1*%
%TO.N,Net-(P1-R3)*%
X51000000Y-131500000D03*
X51000000Y-119000000D03*
%TO.P,SW22,2,2*%
%TO.N,Net-(P1-C2)*%
X56000000Y-131500000D03*
X56000000Y-119000000D03*
%TD*%
%TO.P,SW30,1,1*%
%TO.N,Net-(P1-R3)*%
X198000000Y-131500000D03*
X198000000Y-119000000D03*
%TO.P,SW30,2,2*%
%TO.N,Net-(P1-C10)*%
X203000000Y-131500000D03*
X203000000Y-119000000D03*
%TD*%
%TO.P,SW4,1,1*%
%TO.N,Net-(P1-R1)*%
X86000000Y-89500000D03*
X86000000Y-77000000D03*
%TO.P,SW4,2,2*%
%TO.N,Net-(P1-C4)*%
X91000000Y-89500000D03*
X91000000Y-77000000D03*
%TD*%
%TO.P,SW38,1,1*%
%TO.N,Net-(P1-R4)*%
X205000000Y-160250000D03*
X205000000Y-147750000D03*
%TO.P,SW38,2,2*%
%TO.N,Net-(P1-C8)*%
X210000000Y-160250000D03*
X210000000Y-147750000D03*
%TD*%
%TO.P,SW6,1,1*%
%TO.N,Net-(P1-R1)*%
X121000000Y-89500000D03*
X121000000Y-77000000D03*
%TO.P,SW6,2,2*%
%TO.N,Net-(P1-C6)*%
X126000000Y-89500000D03*
X126000000Y-77000000D03*
%TD*%
D11*
%TO.P,P1,1,R1*%
%TO.N,Net-(P1-R1)*%
X34180000Y-34000000D03*
D12*
%TO.P,P1,2,R2*%
%TO.N,Net-(P1-R2)*%
X36720000Y-34000000D03*
%TO.P,P1,3,R3*%
%TO.N,Net-(P1-R3)*%
X39260000Y-34000000D03*
%TO.P,P1,4,R4*%
%TO.N,Net-(P1-R4)*%
X41800000Y-34000000D03*
%TO.P,P1,5,C1*%
%TO.N,Net-(P1-C1)*%
X44340000Y-34000000D03*
%TO.P,P1,6,C2*%
%TO.N,Net-(P1-C2)*%
X46880000Y-34000000D03*
%TO.P,P1,7,C3*%
%TO.N,Net-(P1-C3)*%
X49420000Y-34000000D03*
%TO.P,P1,8,C4*%
%TO.N,Net-(P1-C4)*%
X51960000Y-34000000D03*
%TO.P,P1,9,C5*%
%TO.N,Net-(P1-C5)*%
X54500000Y-34000000D03*
%TO.P,P1,10,C6*%
%TO.N,Net-(P1-C6)*%
X57040000Y-34000000D03*
%TO.P,P1,11,C7*%
%TO.N,Net-(P1-C7)*%
X59580000Y-34000000D03*
%TO.P,P1,12,C8*%
%TO.N,Net-(P1-C8)*%
X62120000Y-34000000D03*
%TO.P,P1,13,C9*%
%TO.N,Net-(P1-C9)*%
X64660000Y-34000000D03*
%TO.P,P1,14,C10*%
%TO.N,Net-(P1-C10)*%
X67200000Y-34000000D03*
%TO.P,P1,15,GND*%
%TO.N,Net-(P1-GND)*%
X69740000Y-34000000D03*
%TO.P,P1,16,VCC*%
%TO.N,Net-(P1-VCC)*%
X72280000Y-34000000D03*
%TO.P,P1,17,SLD_SW*%
%TO.N,Net-(SW42-B)*%
X74820000Y-34000000D03*
%TO.P,P1,18,SLD_SW*%
%TO.N,Net-(SW42-A)*%
X77360000Y-34000000D03*
%TO.P,P1,19,SLD_SW*%
%TO.N,Net-(SW42-C)*%
X79900000Y-34000000D03*
%TO.P,P1,20,SDA*%
%TO.N,Net-(P1-SDA)*%
X82440000Y-34000000D03*
%TO.P,P1,21,SCL*%
%TO.N,Net-(P1-SCL)*%
X84980000Y-34000000D03*
%TD*%
D10*
%TO.P,SW12,1,1*%
%TO.N,Net-(P1-R2)*%
X51000000Y-110500000D03*
X51000000Y-98000000D03*
%TO.P,SW12,2,2*%
%TO.N,Net-(P1-C2)*%
X56000000Y-110500000D03*
X56000000Y-98000000D03*
%TD*%
%TO.P,SW2,1,1*%
%TO.N,Net-(P1-R1)*%
X51000000Y-89500000D03*
X51000000Y-77000000D03*
%TO.P,SW2,2,2*%
%TO.N,Net-(P1-C2)*%
X56000000Y-89500000D03*
X56000000Y-77000000D03*
%TD*%
D13*
%TO.P,SW41,A,A*%
%TO.N,Net-(U2-GPA6)*%
X185000000Y-58500000D03*
D14*
%TO.P,SW41,B,B*%
%TO.N,Net-(U2-GPA7)*%
X185000000Y-53500000D03*
%TO.P,SW41,C,C*%
%TO.N,Net-(P1-GND)*%
X185000000Y-56000000D03*
D15*
%TO.P,SW41,MP*%
%TO.N,N/C*%
X177500000Y-61600000D03*
X177500000Y-50400000D03*
D14*
%TO.P,SW41,S1,S1*%
%TO.N,Net-(U2-GPA5)*%
X170500000Y-53500000D03*
%TO.P,SW41,S2,S2*%
%TO.N,Net-(P1-GND)*%
X170500000Y-58500000D03*
%TD*%
D10*
%TO.P,SW26,1,1*%
%TO.N,Net-(P1-R3)*%
X121000000Y-131500000D03*
X121000000Y-119000000D03*
%TO.P,SW26,2,2*%
%TO.N,Net-(P1-C6)*%
X126000000Y-131500000D03*
X126000000Y-119000000D03*
%TD*%
%TO.P,SW9,1,1*%
%TO.N,Net-(P1-R1)*%
X173500000Y-89500000D03*
X173500000Y-77000000D03*
%TO.P,SW9,2,2*%
%TO.N,Net-(P1-C9)*%
X178500000Y-89500000D03*
X178500000Y-77000000D03*
%TD*%
%TO.P,SW19,1,1*%
%TO.N,Net-(P1-R2)*%
X173500000Y-110500000D03*
X173500000Y-98000000D03*
%TO.P,SW19,2,2*%
%TO.N,Net-(P1-C9)*%
X178500000Y-110500000D03*
X178500000Y-98000000D03*
%TD*%
%TO.P,SW1,1,1*%
%TO.N,Net-(P1-R1)*%
X33500000Y-89500000D03*
X33500000Y-77000000D03*
%TO.P,SW1,2,2*%
%TO.N,Net-(P1-C1)*%
X38500000Y-89500000D03*
X38500000Y-77000000D03*
%TD*%
%TO.P,SW11,1,1*%
%TO.N,Net-(P1-R2)*%
X33500000Y-110500000D03*
X33500000Y-98000000D03*
%TO.P,SW11,2,2*%
%TO.N,Net-(P1-C1)*%
X38500000Y-110500000D03*
X38500000Y-98000000D03*
%TD*%
%TO.P,SW18,1,1*%
%TO.N,Net-(P1-R2)*%
X156000000Y-110500000D03*
X156000000Y-98000000D03*
%TO.P,SW18,2,2*%
%TO.N,Net-(P1-C8)*%
X161000000Y-110500000D03*
X161000000Y-98000000D03*
%TD*%
%TO.P,SW14,1,1*%
%TO.N,Net-(P1-R2)*%
X86000000Y-110500000D03*
X86000000Y-98000000D03*
%TO.P,SW14,2,2*%
%TO.N,Net-(P1-C4)*%
X91000000Y-110500000D03*
X91000000Y-98000000D03*
%TD*%
%TO.P,SW5,1,1*%
%TO.N,Net-(P1-R1)*%
X103500000Y-89500000D03*
X103500000Y-77000000D03*
%TO.P,SW5,2,2*%
%TO.N,Net-(P1-C5)*%
X108500000Y-89500000D03*
X108500000Y-77000000D03*
%TD*%
%TO.P,SW7,1,1*%
%TO.N,Net-(P1-R1)*%
X138500000Y-89500000D03*
X138500000Y-77000000D03*
%TO.P,SW7,2,2*%
%TO.N,Net-(P1-C7)*%
X143500000Y-89500000D03*
X143500000Y-77000000D03*
%TD*%
%TO.P,SW3,1,1*%
%TO.N,Net-(P1-R1)*%
X68500000Y-89500000D03*
X68500000Y-77000000D03*
%TO.P,SW3,2,2*%
%TO.N,Net-(P1-C3)*%
X73500000Y-89500000D03*
X73500000Y-77000000D03*
%TD*%
%TO.P,SW28,1,1*%
%TO.N,Net-(P1-R3)*%
X156000000Y-131500000D03*
X156000000Y-119000000D03*
%TO.P,SW28,2,2*%
%TO.N,Net-(P1-C8)*%
X161000000Y-131500000D03*
X161000000Y-119000000D03*
%TD*%
%TO.P,SW24,1,1*%
%TO.N,Net-(P1-R3)*%
X86000000Y-131500000D03*
X86000000Y-119000000D03*
%TO.P,SW24,2,2*%
%TO.N,Net-(P1-C4)*%
X91000000Y-131500000D03*
X91000000Y-119000000D03*
%TD*%
%TO.P,SW16,1,1*%
%TO.N,Net-(P1-R2)*%
X121000000Y-110500000D03*
X121000000Y-98000000D03*
%TO.P,SW16,2,2*%
%TO.N,Net-(P1-C6)*%
X126000000Y-110500000D03*
X126000000Y-98000000D03*
%TD*%
D16*
%TO.P,SW42,1,B*%
%TO.N,Net-(SW42-B)*%
X74040000Y-59500000D03*
D17*
%TO.P,SW42,2,C*%
%TO.N,Net-(SW42-C)*%
X76580000Y-59500000D03*
%TO.P,SW42,3,A*%
%TO.N,Net-(SW42-A)*%
X71500000Y-59500000D03*
%TD*%
D10*
%TO.P,SW21,1,1*%
%TO.N,Net-(P1-R3)*%
X33500000Y-131500000D03*
X33500000Y-119000000D03*
%TO.P,SW21,2,2*%
%TO.N,Net-(P1-C1)*%
X38500000Y-131500000D03*
X38500000Y-119000000D03*
%TD*%
M02*
