%TF.GenerationSoftware,KiCad,Pcbnew,9.0.7*%
%TF.CreationDate,2026-07-27T15:20:49+02:00*%
%TF.ProjectId,keyboard,6b657962-6f61-4726-942e-6b696361645f,rev?*%
%TF.SameCoordinates,Original*%
%TF.FileFunction,Soldermask,Bot*%
%TF.FilePolarity,Negative*%
%FSLAX46Y46*%
G04 Gerber Fmt 4.6, Leading zero omitted, Abs format (unit mm)*
G04 Created by KiCad (PCBNEW 9.0.7) date 2026-07-27 15:20:49*
%MOMM*%
%LPD*%
G01*
G04 APERTURE LIST*
%ADD10O,2.500000X3.000000*%
%ADD11R,1.520000X1.520000*%
%ADD12C,1.520000*%
%ADD13R,2.000000X2.000000*%
%ADD14C,2.000000*%
%ADD15R,3.200000X2.000000*%
%ADD16R,1.500000X1.500000*%
%ADD17C,1.600000*%
G04 APERTURE END LIST*
D10*
%TO.C,SW31*%
X51000000Y-152500000D03*
X51000000Y-140000000D03*
X56000000Y-152500000D03*
X56000000Y-140000000D03*
%TD*%
%TO.C,SW33*%
X86000000Y-152500000D03*
X86000000Y-140000000D03*
X91000000Y-152500000D03*
X91000000Y-140000000D03*
%TD*%
%TO.C,SW34*%
X103500000Y-152500000D03*
X103500000Y-140000000D03*
X108500000Y-152500000D03*
X108500000Y-140000000D03*
%TD*%
%TO.C,SW32*%
X68500000Y-152500000D03*
X68500000Y-140000000D03*
X73500000Y-152500000D03*
X73500000Y-140000000D03*
%TD*%
%TO.C,SW36*%
X138500000Y-152500000D03*
X138500000Y-140000000D03*
X143500000Y-152500000D03*
X143500000Y-140000000D03*
%TD*%
%TO.C,SW35*%
X121000000Y-152500000D03*
X121000000Y-140000000D03*
X126000000Y-152500000D03*
X126000000Y-140000000D03*
%TD*%
%TO.C,SW27*%
X138500000Y-131500000D03*
X138500000Y-119000000D03*
X143500000Y-131500000D03*
X143500000Y-119000000D03*
%TD*%
%TO.C,SW17*%
X138500000Y-110500000D03*
X138500000Y-98000000D03*
X143500000Y-110500000D03*
X143500000Y-98000000D03*
%TD*%
%TO.C,SW8*%
X156000000Y-89500000D03*
X156000000Y-77000000D03*
X161000000Y-89500000D03*
X161000000Y-77000000D03*
%TD*%
%TO.C,SW37*%
X156000000Y-152500000D03*
X156000000Y-140000000D03*
X161000000Y-152500000D03*
X161000000Y-140000000D03*
%TD*%
%TO.C,SW25*%
X103500000Y-131500000D03*
X103500000Y-119000000D03*
X108500000Y-131500000D03*
X108500000Y-119000000D03*
%TD*%
%TO.C,SW20*%
X191000000Y-110500000D03*
X191000000Y-98000000D03*
X196000000Y-110500000D03*
X196000000Y-98000000D03*
%TD*%
%TO.C,SW15*%
X103500000Y-110500000D03*
X103500000Y-98000000D03*
X108500000Y-110500000D03*
X108500000Y-98000000D03*
%TD*%
%TO.C,SW29*%
X173500000Y-131500000D03*
X173500000Y-119000000D03*
X178500000Y-131500000D03*
X178500000Y-119000000D03*
%TD*%
%TO.C,SW23*%
X68500000Y-131500000D03*
X68500000Y-119000000D03*
X73500000Y-131500000D03*
X73500000Y-119000000D03*
%TD*%
%TO.C,SW10*%
X191000000Y-89500000D03*
X191000000Y-77000000D03*
X196000000Y-89500000D03*
X196000000Y-77000000D03*
%TD*%
%TO.C,SW13*%
X68500000Y-110500000D03*
X68500000Y-98000000D03*
X73500000Y-110500000D03*
X73500000Y-98000000D03*
%TD*%
%TO.C,SW22*%
X51000000Y-131500000D03*
X51000000Y-119000000D03*
X56000000Y-131500000D03*
X56000000Y-119000000D03*
%TD*%
%TO.C,SW30*%
X198000000Y-131500000D03*
X198000000Y-119000000D03*
X203000000Y-131500000D03*
X203000000Y-119000000D03*
%TD*%
%TO.C,SW4*%
X86000000Y-89500000D03*
X86000000Y-77000000D03*
X91000000Y-89500000D03*
X91000000Y-77000000D03*
%TD*%
%TO.C,SW38*%
X205000000Y-160250000D03*
X205000000Y-147750000D03*
X210000000Y-160250000D03*
X210000000Y-147750000D03*
%TD*%
%TO.C,SW6*%
X121000000Y-89500000D03*
X121000000Y-77000000D03*
X126000000Y-89500000D03*
X126000000Y-77000000D03*
%TD*%
D11*
%TO.C,P1*%
X34180000Y-34000000D03*
D12*
X36720000Y-34000000D03*
X39260000Y-34000000D03*
X41800000Y-34000000D03*
X44340000Y-34000000D03*
X46880000Y-34000000D03*
X49420000Y-34000000D03*
X51960000Y-34000000D03*
X54500000Y-34000000D03*
X57040000Y-34000000D03*
X59580000Y-34000000D03*
X62120000Y-34000000D03*
X64660000Y-34000000D03*
X67200000Y-34000000D03*
X69740000Y-34000000D03*
X72280000Y-34000000D03*
X74820000Y-34000000D03*
X77360000Y-34000000D03*
X79900000Y-34000000D03*
X82440000Y-34000000D03*
X84980000Y-34000000D03*
%TD*%
D10*
%TO.C,SW12*%
X51000000Y-110500000D03*
X51000000Y-98000000D03*
X56000000Y-110500000D03*
X56000000Y-98000000D03*
%TD*%
%TO.C,SW2*%
X51000000Y-89500000D03*
X51000000Y-77000000D03*
X56000000Y-89500000D03*
X56000000Y-77000000D03*
%TD*%
D13*
%TO.C,SW41*%
X185000000Y-58500000D03*
D14*
X185000000Y-53500000D03*
X185000000Y-56000000D03*
D15*
X177500000Y-61600000D03*
X177500000Y-50400000D03*
D14*
X170500000Y-53500000D03*
X170500000Y-58500000D03*
%TD*%
D10*
%TO.C,SW26*%
X121000000Y-131500000D03*
X121000000Y-119000000D03*
X126000000Y-131500000D03*
X126000000Y-119000000D03*
%TD*%
%TO.C,SW9*%
X173500000Y-89500000D03*
X173500000Y-77000000D03*
X178500000Y-89500000D03*
X178500000Y-77000000D03*
%TD*%
%TO.C,SW19*%
X173500000Y-110500000D03*
X173500000Y-98000000D03*
X178500000Y-110500000D03*
X178500000Y-98000000D03*
%TD*%
%TO.C,SW1*%
X33500000Y-89500000D03*
X33500000Y-77000000D03*
X38500000Y-89500000D03*
X38500000Y-77000000D03*
%TD*%
%TO.C,SW11*%
X33500000Y-110500000D03*
X33500000Y-98000000D03*
X38500000Y-110500000D03*
X38500000Y-98000000D03*
%TD*%
%TO.C,SW18*%
X156000000Y-110500000D03*
X156000000Y-98000000D03*
X161000000Y-110500000D03*
X161000000Y-98000000D03*
%TD*%
%TO.C,SW14*%
X86000000Y-110500000D03*
X86000000Y-98000000D03*
X91000000Y-110500000D03*
X91000000Y-98000000D03*
%TD*%
%TO.C,SW5*%
X103500000Y-89500000D03*
X103500000Y-77000000D03*
X108500000Y-89500000D03*
X108500000Y-77000000D03*
%TD*%
%TO.C,SW7*%
X138500000Y-89500000D03*
X138500000Y-77000000D03*
X143500000Y-89500000D03*
X143500000Y-77000000D03*
%TD*%
%TO.C,SW3*%
X68500000Y-89500000D03*
X68500000Y-77000000D03*
X73500000Y-89500000D03*
X73500000Y-77000000D03*
%TD*%
%TO.C,SW28*%
X156000000Y-131500000D03*
X156000000Y-119000000D03*
X161000000Y-131500000D03*
X161000000Y-119000000D03*
%TD*%
%TO.C,SW24*%
X86000000Y-131500000D03*
X86000000Y-119000000D03*
X91000000Y-131500000D03*
X91000000Y-119000000D03*
%TD*%
%TO.C,SW16*%
X121000000Y-110500000D03*
X121000000Y-98000000D03*
X126000000Y-110500000D03*
X126000000Y-98000000D03*
%TD*%
D16*
%TO.C,SW42*%
X74040000Y-59500000D03*
D17*
X76580000Y-59500000D03*
X71500000Y-59500000D03*
%TD*%
D10*
%TO.C,SW21*%
X33500000Y-131500000D03*
X33500000Y-119000000D03*
X38500000Y-131500000D03*
X38500000Y-119000000D03*
%TD*%
M02*
